
        <svg xmlns="http://www.w3.org/2000/svg" xmlns:xlink="http://www.w3.org/1999/xlink" version="1.1" width="3162.089149031968" height="1384.0129173176379" viewBox="0 0 3162.089149031968 1384.0129173176379">
			
			<g transform="scale(8.104457451598378) translate(10, 10)">
				<defs id="SvgjsDefs2427"><linearGradient id="SvgjsLinearGradient2434"><stop id="SvgjsStop2435" stop-color="#945f50" offset="0"/><stop id="SvgjsStop2436" stop-color="#fcc5b3" offset="0.5"/><stop id="SvgjsStop2437" stop-color="#945f50" offset="1"/></linearGradient></defs><g id="SvgjsG2428" featureKey="symbolFeature-0" transform="matrix(1.5884428024291992,0,0,1.5884428024291992,-9.729212378995635,-4.036233074077047)" fill="#000"><path xmlns="http://www.w3.org/2000/svg" d="M94.914,38.67h-1.039c-0.006,0-0.012,0.001-0.018,0.002c-0.937-4.666-2.643-9.054-4.969-13.038V7.55  c0.906-0.415,1.541-1.325,1.541-2.385c0-1.447-1.178-2.624-2.625-2.624c-1.449,0-2.627,1.177-2.627,2.624  c0,1.061,0.635,1.971,1.543,2.385v14.733C78.974,11.473,66.313,4.414,52.029,4.414c-20.648,0-37.914,14.746-41.829,34.258  c-0.006,0-0.011-0.001-0.017-0.001H9.146c-1.666,0-3.021,1.32-3.021,2.942v10.931c0,1.623,1.355,2.942,3.021,2.942h1.037  c0.006,0,0.012-0.002,0.019-0.002c0.575,2.865,1.434,5.629,2.553,8.257c3.408,19.153,19.714,33.718,39.274,33.718  c19.553,0,35.85-14.557,39.265-33.699c1.123-2.634,1.984-5.403,2.562-8.275c0.006,0,0.013,0.002,0.02,0.002h1.039  c1.665,0,3.019-1.319,3.019-2.942V41.613C97.933,39.99,96.579,38.67,94.914,38.67z M9.146,52.98c-0.284,0-0.515-0.196-0.515-0.437  V41.613c0-0.24,0.231-0.436,0.515-0.436h0.636c-0.268,1.93-0.417,3.898-0.417,5.901c0,2.003,0.15,3.971,0.418,5.902H9.146z   M86.246,5.165c0-0.858,0.699-1.557,1.559-1.557s1.557,0.698,1.557,1.557c0,0.859-0.697,1.558-1.557,1.558  S86.246,6.024,86.246,5.165z M52.029,96.04c-16.813,0-31.131-11.173-36.375-26.693c0.107,0.174,0.222,0.344,0.332,0.517  c6.433,13.858,20.166,23.458,36.044,23.458c15.889,0,29.631-9.612,36.06-23.485c0.103-0.16,0.208-0.317,0.308-0.479  C83.15,84.872,68.838,96.04,52.029,96.04z M42.505,38.823l14.39-13.266c16.754,1.605,29.684,11.365,29.684,23.134  c0,0.312-0.017,0.622-0.034,0.931c-2.825,11.233-17.222,19.811-34.515,19.811c-6.681,0-12.924-1.284-18.24-3.503l24.072-35.141  l-15.015,8.242c1.146,0.718,2.338,1.668,3.571,2.908c0,0-8.591,6.239-16.887,1.074l-5.384,10.748l10.361-7.333l-4.285,17.798  C23.646,60.65,18.992,55.5,17.514,49.62c-0.018-0.309-0.035-0.617-0.035-0.929c0-9.316,8.103-17.374,19.789-21.125l-5.562,11.103  C34.265,37.141,38.015,36.174,42.505,38.823z M52.029,70.931c13.172,0,24.729-4.866,31.153-12.141  c-5.58,7.844-17.447,13.271-31.153,13.271c-13.708,0-25.574-5.428-31.154-13.271C27.3,66.063,38.857,70.931,52.029,70.931z   M52.029,89.741c11.061,0,21.15-4.232,28.738-11.161c-7.057,8.168-17.321,13.322-28.738,13.322c-11.44,0-21.727-5.174-28.788-13.367  C30.835,85.489,40.944,89.741,52.029,89.741z M52.525,87.277V74.503c20.174-0.187,36.504-11.69,36.504-25.812  c0-14.238-16.598-25.821-37-25.821S15.028,34.453,15.028,48.691c0,14.122,16.331,25.625,36.505,25.812v12.774  C29.587,87.01,11.815,69.085,11.815,47.079c0-22.174,18.04-40.214,40.214-40.214c22.174,0,40.213,18.04,40.213,40.214  C92.242,69.085,74.47,87.01,52.525,87.277z M95.427,52.544c0,0.24-0.23,0.437-0.513,0.437h-0.641c0.27-1.931,0.42-3.898,0.42-5.902  c0-2.003-0.15-3.971-0.418-5.901h0.639c0.277,0,0.513,0.199,0.513,0.436V52.544z"/><g xmlns="http://www.w3.org/2000/svg"><path d="M55.188,83.597c-0.096-0.06-0.203-0.104-0.324-0.104c-0.346,0-0.625,0.28-0.625,0.625   c0,0.125,0.047,0.235,0.11,0.334L55.188,83.597z"/><path d="M54.553,84.648c0.093,0.055,0.195,0.095,0.311,0.095c0.346,0,0.625-0.28,0.625-0.625   c0-0.119-0.043-0.225-0.101-0.319L54.553,84.648z"/></g><g xmlns="http://www.w3.org/2000/svg"><path d="M55.188,80.315c-0.096-0.06-0.203-0.104-0.324-0.104c-0.346,0-0.625,0.28-0.625,0.625   c0,0.125,0.047,0.235,0.11,0.334L55.188,80.315z"/><path d="M54.553,81.367c0.093,0.055,0.195,0.095,0.311,0.095c0.346,0,0.625-0.28,0.625-0.625   c0-0.119-0.043-0.225-0.101-0.319L54.553,81.367z"/></g><g xmlns="http://www.w3.org/2000/svg"><path d="M55.188,77.065c-0.096-0.06-0.203-0.104-0.324-0.104c-0.346,0-0.625,0.28-0.625,0.625   c0,0.125,0.047,0.235,0.11,0.334L55.188,77.065z"/><path d="M54.553,78.117c0.093,0.055,0.195,0.095,0.311,0.095c0.346,0,0.625-0.28,0.625-0.625   c0-0.119-0.043-0.225-0.101-0.319L54.553,78.117z"/></g></g><g id="SvgjsG2429" featureKey="nameFeature-0" transform="matrix(0.7891657948493958,0,0,0.7891657948493958,164.76890158660032,24.118863456296438)" fill="#000"><path d="M18 15.719999999999999 q-0.52 -0.08 -0.86 -0.48 t-0.34 -0.92 l0 -2.92 q0 -0.68 0.48 -1.08 t1.12 -0.32 q3.44 0.56 6.12 2.44 q3.48 2.52 4.92 6.68 q0.24 0.68 -0.16 1.28 t-1.16 0.6 l-3.2 0 q-0.44 0 -0.8 -0.22 t-0.52 -0.62 q-0.88 -2.08 -2.68 -3.32 q-1.4 -0.88 -2.92 -1.12 z M28.12 29 q0.76 0 1.16 0.6 t0.16 1.28 q-1.44 4.16 -4.92 6.68 q-2.68 1.88 -6.12 2.44 l-0.2 0 q-0.56 0 -0.92 -0.36 q-0.48 -0.36 -0.48 -1.04 l0 -2.92 q0 -0.52 0.32 -0.92 t0.84 -0.48 q1.68 -0.24 2.96 -1.12 q1.8 -1.24 2.68 -3.32 q0.16 -0.4 0.52 -0.62 t0.8 -0.22 l3.2 0 z M13.8 10.48 q0.52 0.4 0.52 1.08 l0 3.12 q0 0.44 -0.3 0.82 t-0.74 0.54 q-0.56 0.12 -0.88 0.28 q-1.6 0.72 -2.72 1.96 q-2.28 2.56 -2.28 6.7 t2.28 6.74 q1.4 1.6 3.6 2.24 q0.44 0.12 0.74 0.5 t0.3 0.82 l0 3.16 q0 0.68 -0.52 1.08 q-0.36 0.32 -0.92 0.32 l-0.28 0 q-4.28 -0.92 -7.24 -4.16 q-3.8 -4.28 -3.8 -10.68 t3.8 -10.68 q2.96 -3.28 7.24 -4.12 q0.64 -0.16 1.2 0.28 z M46.524 10.32 q0.48 0.4 0.48 1.08 l0 3 q0 0.52 -0.3 0.9 t-0.82 0.5 q-2.56 0.52 -4.36 2.44 q-2.44 2.56 -2.44 6.66 t2.44 6.7 q1.8 1.88 4.36 2.4 q0.52 0.12 0.82 0.5 t0.3 0.9 l0 3 q0 0.64 -0.48 1.08 q-0.44 0.32 -0.92 0.32 l-0.24 0 q-4.64 -0.76 -7.96 -4.2 q-4.16 -4.28 -4.16 -10.66 t4.16 -10.74 q3.24 -3.36 7.96 -4.16 q0.64 -0.12 1.16 0.28 z M59.084 14.2 q4.16 4.36 4.16 10.74 t-4.16 10.66 q-3.32 3.44 -7.96 4.2 l-0.24 0 q-0.48 0 -0.92 -0.32 q-0.48 -0.44 -0.48 -1.08 l0 -3 q0 -0.52 0.3 -0.9 t0.82 -0.5 q2.56 -0.52 4.36 -2.4 q2.44 -2.6 2.44 -6.7 t-2.44 -6.66 q-1.8 -1.92 -4.36 -2.44 q-0.52 -0.12 -0.82 -0.5 t-0.3 -0.9 l0 -3 q0 -0.68 0.5 -1.08 t1.14 -0.28 q4.72 0.8 7.96 4.16 z M80.528 10.32 q0.48 0.4 0.48 1.08 l0 3 q0 0.52 -0.3 0.9 t-0.82 0.5 q-2.56 0.52 -4.36 2.44 q-2.44 2.56 -2.44 6.66 t2.44 6.7 q1.8 1.88 4.36 2.4 q0.52 0.12 0.82 0.5 t0.3 0.9 l0 3 q0 0.64 -0.48 1.08 q-0.44 0.32 -0.92 0.32 l-0.24 0 q-4.64 -0.76 -7.96 -4.2 q-4.16 -4.28 -4.16 -10.66 t4.16 -10.74 q3.24 -3.36 7.96 -4.16 q0.64 -0.12 1.16 0.28 z M93.088 14.2 q4.16 4.36 4.16 10.74 t-4.16 10.66 q-3.32 3.44 -7.96 4.2 l-0.24 0 q-0.48 0 -0.92 -0.32 q-0.48 -0.44 -0.48 -1.08 l0 -3 q0 -0.52 0.3 -0.9 t0.82 -0.5 q2.56 -0.52 4.36 -2.4 q2.44 -2.6 2.44 -6.7 t-2.44 -6.66 q-1.8 -1.92 -4.36 -2.44 q-0.52 -0.12 -0.82 -0.5 t-0.3 -0.9 l0 -3 q0 -0.68 0.5 -1.08 t1.14 -0.28 q4.72 0.8 7.96 4.16 z M107.37200000000001 10 q0.56 0 0.98 0.42 t0.42 0.98 l0 26.8 q0 0.56 -0.42 0.98 t-0.98 0.42 l-3.04 0 q-0.56 0 -0.98 -0.42 t-0.42 -0.98 l0 -26.8 q0 -0.56 0.42 -0.98 t0.98 -0.42 l3.04 0 z M121.97200000000001 33.88 q0.6 0 1 0.42 t0.4 0.98 l0 2.92 q0 0.56 -0.4 0.98 t-1 0.42 l-9.32 0 q-0.6 0 -1 -0.42 t-0.4 -0.98 l0 -2.92 q0 -0.56 0.4 -0.98 t1 -0.42 l9.32 0 z M161.94 10 q0.56 0 0.98 0.42 t0.42 0.98 l0 26.8 q0 0.56 -0.42 0.98 t-0.98 0.42 l-3.52 0 q-0.72 0 -1.16 -0.56 l-19.56 -26.8 q-0.24 -0.32 -0.28 -0.72 t0.14 -0.76 t0.52 -0.56 t0.74 -0.2 l3.52 0 q0.32 0 0.64 0.14 t0.48 0.42 l14.04 19.08 l0 -18.24 q0 -0.56 0.4 -0.98 t1 -0.42 l3.04 0 z M141.86 29.4 q0.56 0 0.98 0.4 t0.42 1 l0 7.4 q0 0.56 -0.42 0.98 t-0.98 0.42 l-3.04 0 q-0.56 0 -0.98 -0.42 t-0.42 -0.98 l0 -7.4 q0 -0.6 0.42 -1 t0.98 -0.4 l3.04 0 z M197.024 37.72 q0.28 0.64 -0.14 1.3 t-1.14 0.66 l-26.64 0 q-0.36 0 -0.68 -0.18 t-0.48 -0.46 q-0.44 -0.64 -0.12 -1.32 l1.24 -2.92 q0.16 -0.4 0.52 -0.64 t0.76 -0.24 l18.64 0 l-6.56 -15.68 l-5.36 12.8 q-0.16 0.4 -0.5 0.62 t-0.78 0.22 l-3.36 0 q-0.76 0 -1.2 -0.64 q-0.16 -0.28 -0.2 -0.64 t0.08 -0.68 l8.12 -19.04 q0.16 -0.4 0.5 -0.64 t0.78 -0.24 l3.84 0 q0.44 0 0.78 0.24 t0.5 0.64 z M228.948 10 q0.56 0 0.98 0.42 t0.42 0.98 l0 26.8 q0 0.56 -0.42 0.98 t-0.98 0.42 l-3.04 0 q-0.6 0 -1 -0.42 t-0.4 -0.98 l0 -18.08 l-7.4 9.52 q-0.44 0.52 -1.12 0.52 l0 0 q-0.32 0 -0.64 -0.14 t-0.48 -0.42 l-13.12 -17.36 q-0.24 -0.28 -0.28 -0.7 t0.16 -0.76 t0.52 -0.56 t0.72 -0.22 l3.52 0 q0.68 0 1.12 0.56 l8.48 11.2 l8.28 -11.2 q0.44 -0.56 1.16 -0.56 l3.52 0 z M205.90800000000002 29.4 q0.56 0 0.98 0.4 t0.42 1 l0 7.4 q0 0.56 -0.42 0.98 t-0.98 0.42 l-3.04 0 q-0.56 0 -0.98 -0.42 t-0.42 -0.98 l0 -7.4 q0 -0.6 0.42 -1 t0.98 -0.4 l3.04 0 z M258.872 33.92 q0.6 0 1 0.42 t0.4 1.02 l0 2.92 q0 0.56 -0.4 0.98 t-1 0.42 l-19.76 0 q-0.56 0 -0.98 -0.42 t-0.42 -0.98 l0 -2.92 q0 -0.6 0.42 -1.02 t0.98 -0.42 l19.76 0 z M239.112 27.72 q-0.56 0 -0.98 -0.42 t-0.42 -0.98 l0 -3 q0 -0.56 0.42 -0.98 t0.98 -0.42 l17.96 0 q0.6 0 1.02 0.42 t0.42 0.98 l0 3 q0 0.56 -0.42 0.98 t-1.02 0.42 l-17.96 0 z M258.872 10 q0.6 0 1 0.42 t0.4 0.98 l0 2.92 q0 0.6 -0.4 1.02 t-1 0.42 l-19.76 0 q-0.56 0 -0.98 -0.42 t-0.42 -1.02 l0 -2.92 q0 -0.56 0.42 -0.98 t0.98 -0.42 l19.76 0 z"/></g><g id="SvgjsG2430" featureKey="nameFeature-1" transform="matrix(1.799586296081543,0,0,1.799586296081543,160.1693409284537,48.00413739679344)" fill="#000"><path d="M4.64 20.24 q-0.56 0 -0.98 -0.42 t-0.42 -0.98 l0 -7.44 q0 -0.56 0.42 -0.98 t0.98 -0.42 l3.04 0 q0.6 0 1 0.42 t0.4 0.98 l0 7.44 q0 0.56 -0.4 0.98 t-1 0.42 l-3.04 0 z M26.36 10 q0.56 0 0.98 0.42 t0.42 0.98 l0 26.88 q0 0.56 -0.42 0.98 t-0.98 0.42 l-3.04 0 q-0.6 0 -1 -0.42 t-0.4 -0.98 l0 -10.56 l-12.84 0 l0 10.56 q0 0.56 -0.4 0.98 t-1 0.42 l-3.04 0 q-0.56 0 -0.98 -0.42 t-0.42 -0.98 l0 -14.96 q0 -0.56 0.42 -0.98 t0.98 -0.42 l17.28 0 l0 -10.52 q0 -0.56 0.4 -0.98 t1 -0.42 l3.04 0 z M56.284 33.92 q0.6 0 1 0.42 t0.4 1.02 l0 2.92 q0 0.56 -0.4 0.98 t-1 0.42 l-19.76 0 q-0.56 0 -0.98 -0.42 t-0.42 -0.98 l0 -2.92 q0 -0.6 0.42 -1.02 t0.98 -0.42 l19.76 0 z M36.524 27.72 q-0.56 0 -0.98 -0.42 t-0.42 -0.98 l0 -3 q0 -0.56 0.42 -0.98 t0.98 -0.42 l17.96 0 q0.6 0 1.02 0.42 t0.42 0.98 l0 3 q0 0.56 -0.42 0.98 t-1.02 0.42 l-17.96 0 z M56.284 10 q0.6 0 1 0.42 t0.4 0.98 l0 2.92 q0 0.6 -0.4 1.02 t-1 0.42 l-19.76 0 q-0.56 0 -0.98 -0.42 t-0.42 -1.02 l0 -2.92 q0 -0.56 0.42 -0.98 t0.98 -0.42 l19.76 0 z M82.36800000000001 28.2 l6.04 9.24 q0.44 0.72 0.04 1.44 q-0.16 0.32 -0.5 0.52 t-0.7 0.2 l-3.64 0 q-0.36 0 -0.68 -0.18 t-0.48 -0.46 l-6.08 -9.64 l-7.12 0 l0 8.88 q0 0.56 -0.42 0.98 t-0.98 0.42 l-3.04 0 q-0.56 0 -0.98 -0.42 t-0.42 -0.98 l0 -13.16 q0 -0.56 0.42 -0.98 t0.98 -0.42 l12.32 0 q3.52 0 4.68 -2 q0.4 -0.64 0.4 -1.84 q0 -1.88 -1.24 -2.96 q-1.28 -1.16 -3.68 -1.16 l-12.48 0 q-0.56 0 -0.98 -0.42 t-0.42 -0.98 l0 -2.88 q0 -0.56 0.42 -0.98 t0.98 -0.42 l12.84 0 q4.68 0 7.48 2.64 q2.92 2.64 2.92 7.16 q0 2.92 -1.28 4.98 t-3.72 3.14 z M115.292 33.92 q0.6 0 1 0.42 t0.4 1.02 l0 2.92 q0 0.56 -0.4 0.98 t-1 0.42 l-19.76 0 q-0.56 0 -0.98 -0.42 t-0.42 -0.98 l0 -2.92 q0 -0.6 0.42 -1.02 t0.98 -0.42 l19.76 0 z M95.53200000000001 27.72 q-0.56 0 -0.98 -0.42 t-0.42 -0.98 l0 -3 q0 -0.56 0.42 -0.98 t0.98 -0.42 l17.96 0 q0.6 0 1.02 0.42 t0.42 0.98 l0 3 q0 0.56 -0.42 0.98 t-1.02 0.42 l-17.96 0 z M115.292 10 q0.6 0 1 0.42 t0.4 0.98 l0 2.92 q0 0.6 -0.4 1.02 t-1 0.42 l-19.76 0 q-0.56 0 -0.98 -0.42 t-0.42 -1.02 l0 -2.92 q0 -0.56 0.42 -0.98 t0.98 -0.42 l19.76 0 z"/></g>
			</g>
		</svg>
	